<svg id="visual" viewBox="0 0 960 540" width="960" height="540" xmlns="http://www.w3.org/2000/svg" xmlns:xlink="http://www.w3.org/1999/xlink" version="1.1"><path d="M0 120L192 55L384 120L576 141L768 60L960 77L960 0L768 0L576 0L384 0L192 0L0 0Z" fill="#00b2ff"></path><path d="M0 168L192 136L384 201L576 179L768 98L960 152L960 75L768 58L576 139L384 118L192 53L0 118Z" fill="#c2e2ff"></path><path d="M0 347L192 244L384 330L576 320L768 325L960 341L960 150L768 96L576 177L384 199L192 134L0 166Z" fill="#ffffff"></path><path d="M0 411L192 309L384 411L576 368L768 406L960 422L960 339L768 323L576 318L384 328L192 242L0 345Z" fill="#c2e2ff"></path><path d="M0 541L192 541L384 541L576 541L768 541L960 541L960 420L768 404L576 366L384 409L192 307L0 409Z" fill="#00b2ff"></path></svg>