<svg id="visual" viewBox="0 0 960 540" width="960" height="540" xmlns="http://www.w3.org/2000/svg" xmlns:xlink="http://www.w3.org/1999/xlink" version="1.1"><rect x="0" y="0" width="960" height="540" fill="#000000"></rect><defs><linearGradient id="grad1_0" x1="43.8%" y1="0%" x2="100%" y2="100%"><stop offset="14.444444444444446%" stop-color="#000000" stop-opacity="1"></stop><stop offset="85.55555555555554%" stop-color="#000000" stop-opacity="1"></stop></linearGradient></defs><defs><linearGradient id="grad2_0" x1="0%" y1="0%" x2="56.3%" y2="100%"><stop offset="14.444444444444446%" stop-color="#000000" stop-opacity="1"></stop><stop offset="85.55555555555554%" stop-color="#000000" stop-opacity="1"></stop></linearGradient></defs><g transform="translate(960, 0)"><path d="M0 486C-57.8 467.2 -115.5 448.4 -177.6 428.7C-239.6 408.9 -306 388.2 -343.7 343.7C-381.3 299.1 -390.3 230.8 -409.3 169.5C-428.2 108.3 -457.1 54.1 -486 0L0 0Z" fill="#009473"></path></g><g transform="translate(0, 540)"><path d="M0 -486C66.2 -482.8 132.4 -479.6 186 -449C239.6 -418.4 280.5 -360.3 306.9 -306.9C333.2 -253.4 344.9 -204.6 372.3 -154.2C399.7 -103.8 442.9 -51.9 486 0L0 0Z" fill="#009473"></path></g></svg>